<?xml version="1.0" encoding="UTF-8" standalone="no"?>
<svg
   xmlns:dc="http://purl.org/dc/elements/1.1/"
   xmlns:cc="http://creativecommons.org/ns#"
   xmlns:rdf="http://www.w3.org/1999/02/22-rdf-syntax-ns#"
   xmlns:svg="http://www.w3.org/2000/svg"
   xmlns="http://www.w3.org/2000/svg"
   xmlns:sodipodi="http://sodipodi.sourceforge.net/DTD/sodipodi-0.dtd"
   xmlns:inkscape="http://www.inkscape.org/namespaces/inkscape"
   version="1.0"
   width="512.000000pt"
   height="512.000000pt"
   viewBox="0 0 512.000000 512.000000"
   preserveAspectRatio="xMidYMid meet"
   id="svg10"
   sodipodi:docname="safari-pinned-tab.svg"
   inkscape:version="0.92.1 r15371">
  <defs
     id="defs14" />
  <sodipodi:namedview
     pagecolor="#ffffff"
     bordercolor="#666666"
     borderopacity="1"
     objecttolerance="10"
     gridtolerance="10"
     guidetolerance="10"
     inkscape:pageopacity="0"
     inkscape:pageshadow="2"
     inkscape:window-width="1280"
     inkscape:window-height="970"
     id="namedview12"
     showgrid="false"
     inkscape:zoom="0.34570312"
     inkscape:cx="313.15404"
     inkscape:cy="381.25979"
     inkscape:window-x="-4"
     inkscape:window-y="-4"
     inkscape:window-maximized="1"
     inkscape:current-layer="svg10" />
  <metadata
     id="metadata2">
Created by potrace 1.11, written by Peter Selinger 2001-2013
<rdf:RDF>
  <cc:Work
     rdf:about="">
    <dc:format>image/svg+xml</dc:format>
    <dc:type
       rdf:resource="http://purl.org/dc/dcmitype/StillImage" />
  </cc:Work>
</rdf:RDF>
</metadata>
  <g
     id="g4509"
     transform="matrix(0.99501176,0,0,0.99501176,1.0583616,12.714065)">
    <g
       transform="matrix(3.3683548,0,0,-3.4435102,0.63291944,130.65108)"
       id="g20"
       style="fill:#000000;stroke:none;stroke-width:6.77717781;stroke-miterlimit:4;stroke-dasharray:none">
      <path
         inkscape:connector-curvature="0"
         id="path22"
         style="fill:#000000;fill-opacity:1;fill-rule:nonzero;stroke:none;stroke-width:6.77717781;stroke-miterlimit:4;stroke-dasharray:none"
         d="m 0,0 c 0,20.971 17.001,37.972 37.972,37.972 20.971,0 37.972,-17.117 37.972,-37.972 0,-21.23 -2.25,-32.964 -15.689,-48.416 C 48,-62.507 16.334,-94.246 8.392,-102.176 6.74,-103.826 0,-107.008 0,-98.068 v 19.631 c 0,0 0,3.797 1.777,5.333 1.298,1.953 34.369,33.901 40.945,41.116 C 54.694,-18.854 53.944,0 48.787,6.836 L 48.879,6.713 C 46.624,10.369 42.582,12.805 37.972,12.805 30.9,12.805 25.167,7.072 25.167,0 V -11.074 H 0 Z" />
    </g>
    <g
       transform="matrix(3.3683548,0,0,-3.4435102,257.11585,20.081003)"
       id="g28"
       style="fill:#000000;stroke:none;stroke-width:6.77717781;stroke-linecap:butt;stroke-linejoin:round;stroke-miterlimit:4;stroke-dasharray:none;paint-order:normal">
      <path
         sodipodi:nodetypes="ccccscscc"
         inkscape:connector-curvature="0"
         id="path30"
         style="fill:#000000;fill-opacity:1;fill-rule:nonzero;stroke:none;stroke-width:6.77717781;stroke-linecap:butt;stroke-linejoin:round;stroke-miterlimit:4;stroke-dasharray:none;paint-order:normal"
         d="M 0,0 C 0.058,1.815 0.364,5.641 4.286,5.862 6.71,5.999 8.304,4.911 10,3.214 c 1.696,-1.696 62.835,-62.928 62.835,-62.928 0,0 6.25,-4.929 0,-11.179 -6.25,-6.25 -59.265,-59.559 -62.835,-63.214 -1.206,-1.236 -2.831,-2.113 -4.822,-2.113 -2.857,0 -5.178,1.041 -5.178,7.47 z" />
    </g>
  </g>
</svg>
